<svg width="128" height="128" viewBox="0 0 128 128" fill="none" xmlns="http://www.w3.org/2000/svg">
  <defs>
    <pattern id="grid" width="16" height="16" patternUnits="userSpaceOnUse">
      <path d="M16 0H0V16" stroke="#315B83" stroke-width="1"/>
    </pattern>
  </defs>
  <rect width="128" height="128" rx="24" fill="#0B2340"/>
  <rect width="128" height="128" rx="24" fill="url(#grid)"/>
  <g stroke="#D8E1EA" stroke-width="1.5">
    <path d="M10 22V10H22M18 10V18H10M106 10H118V22M118 18H110V10M10 106V118H22M18 118V110H10M106 118H118V106M118 110H110V118"/>
  </g>
  <path d="M18 71H27L33 94L39 71H48L39 104H27L18 71ZM50 43L60 33H72V104H60V50H50V43ZM77 43L87 33H102L110 41V61L89 89V92H110V104H77V85L98 57V46H89V57H77V43Z" fill="#F8F7F2"/>
</svg>
